<svg xmlns="http://www.w3.org/2000/svg" xmlns:xlink="http://www.w3.org/1999/xlink" width="40" zoomAndPan="magnify" viewBox="0 0 30 30.000001" height="40" preserveAspectRatio="xMidYMid meet" version="1.0"><defs><clipPath id="48c4820102"><path d="M 1.898438 10.605469 L 29.453125 10.605469 L 29.453125 26.703125 L 1.898438 26.703125 Z M 1.898438 10.605469 " clip-rule="nonzero"/></clipPath><clipPath id="646ebed798"><path d="M 1.898438 8.070312 L 28.03125 8.070312 L 28.03125 26.703125 L 1.898438 26.703125 Z M 1.898438 8.070312 " clip-rule="nonzero"/></clipPath><clipPath id="bff17d7c56"><path d="M 0.484375 2.03125 L 29 2.03125 L 29 23 L 0.484375 23 Z M 0.484375 2.03125 " clip-rule="nonzero"/></clipPath></defs><g clip-path="url(#48c4820102)"><path fill="#dcd6ba" d="M 13.175781 22.054688 L 12.070312 22.328125 L 16.65625 19.75 Z M 1.996094 11.015625 L 12.09375 17.128906 L 12.070312 22.328125 L 9.015625 20.472656 L 12.070312 23.171875 L 12.070312 26.703125 L 1.980469 20.589844 L 1.988281 17.105469 L 4.496094 19.316406 L 6.976562 20.082031 L 1.988281 17.105469 L 1.996094 13.609375 L 9.09375 17.378906 L 1.996094 13.042969 Z M 28.011719 12.976562 L 17.351562 17.894531 L 28.011719 11.90625 L 28.011719 10.707031 L 29.453125 12.3125 Z M 28.003906 14.648438 L 28.96875 16.0625 L 28 16.328125 L 26.019531 16.863281 L 28 15.710938 L 28.003906 14.648438 " fill-opacity="1" fill-rule="evenodd"/></g><g clip-path="url(#646ebed798)"><path fill="#c1b788" d="M 1.988281 17.105469 L 6.976562 20.082031 L 4.496094 19.316406 Z M 28.011719 12.976562 L 28.003906 14.648438 L 28 15.710938 L 26.019531 16.863281 L 28 16.328125 L 28 17.746094 L 12.070312 26.703125 L 12.070312 23.171875 L 9.015625 20.472656 L 12.070312 22.792969 L 12.070312 23.171875 L 16.65625 19.75 L 12.070312 22.328125 L 12.09375 17.128906 L 12.101562 17.128906 L 28.019531 8.171875 L 28.011719 10.707031 L 28.011719 11.90625 L 17.351562 17.894531 L 28.011719 12.976562 " fill-opacity="1" fill-rule="evenodd"/></g><g clip-path="url(#bff17d7c56)"><path fill="#fffcf2" d="M 12.3125 14.285156 L 12.667969 14.085938 L 11.488281 13.410156 L 11.136719 13.617188 Z M 8.832031 11.03125 C 8.734375 11.085938 8.65625 11.125 8.601562 11.152344 L 9.125 11.460938 L 9.445312 11.273438 L 8.929688 10.972656 C 8.898438 10.996094 8.867188 11.015625 8.832031 11.03125 Z M 12.113281 11.164062 L 12.472656 10.960938 L 11.023438 10.128906 L 10.660156 10.339844 Z M 12.320312 12.941406 L 12.015625 12.757812 C 11.96875 12.789062 11.925781 12.816406 11.878906 12.84375 C 11.792969 12.894531 11.726562 12.929688 11.679688 12.945312 L 11.988281 13.128906 Z M 10.769531 12.300781 C 10.734375 12.324219 10.707031 12.34375 10.675781 12.359375 L 11.46875 12.824219 C 11.558594 12.78125 11.679688 12.726562 11.824219 12.65625 L 10.980469 12.160156 C 10.925781 12.199219 10.855469 12.242188 10.769531 12.300781 Z M 10.628906 12.136719 C 10.699219 12.097656 10.75 12.070312 10.785156 12.054688 L 9.90625 11.539062 L 9.578125 11.726562 L 10.480469 12.25 C 10.523438 12.210938 10.570312 12.171875 10.628906 12.136719 Z M 10.96875 13.109375 L 9.664062 12.359375 C 9.609375 12.402344 9.539062 12.445312 9.449219 12.5 C 9.398438 12.527344 9.351562 12.550781 9.316406 12.570312 L 10.644531 13.339844 C 10.726562 13.289062 10.816406 13.222656 10.914062 13.140625 C 10.929688 13.128906 10.949219 13.117188 10.96875 13.109375 Z M 10.550781 10.863281 L 9.320312 10.144531 C 9.273438 10.175781 9.21875 10.210938 9.15625 10.25 C 9.074219 10.296875 9.015625 10.332031 8.972656 10.351562 L 10.175781 11.050781 C 10.273438 11.007812 10.398438 10.945312 10.550781 10.863281 Z M 10.578125 11.070312 C 10.503906 11.113281 10.4375 11.148438 10.382812 11.171875 L 10.632812 11.316406 L 10.980469 11.109375 L 10.730469 10.964844 C 10.6875 11 10.636719 11.03125 10.578125 11.070312 Z M 11.050781 11.304688 C 10.933594 11.367188 10.855469 11.40625 10.8125 11.417969 L 11.769531 11.980469 C 11.832031 11.953125 11.894531 11.917969 11.964844 11.871094 C 12.023438 11.839844 12.082031 11.8125 12.140625 11.792969 L 11.171875 11.226562 C 11.132812 11.25 11.089844 11.277344 11.050781 11.304688 Z M 6.898438 11.195312 L 8.851562 12.308594 L 9.210938 12.101562 L 7.269531 10.984375 Z M 6.433594 10.925781 L 6.800781 10.710938 L 5.851562 10.167969 L 5.5 10.398438 Z M 6.339844 9.847656 L 8.144531 10.886719 L 8.464844 10.707031 L 6.652344 9.65625 Z M 11.554688 9.84375 L 11.777344 9.976562 L 12.09375 9.789062 L 11.847656 9.644531 C 11.800781 9.679688 11.746094 9.722656 11.683594 9.765625 C 11.640625 9.792969 11.597656 9.820312 11.554688 9.84375 Z M 11.042969 9.546875 L 11.347656 9.722656 L 11.667969 9.542969 L 11.355469 9.359375 C 11.304688 9.398438 11.25 9.433594 11.183594 9.46875 C 11.132812 9.5 11.085938 9.527344 11.042969 9.546875 Z M 10.046875 9.996094 L 10.464844 10.230469 L 10.835938 10.019531 L 10.414062 9.777344 Z M 10.957031 8.070312 L 10.140625 7.597656 L 9.796875 7.804688 L 10.597656 8.269531 C 10.640625 8.238281 10.691406 8.210938 10.75 8.175781 Z M 11.976562 8.667969 L 11.121094 8.171875 C 11.074219 8.203125 11.011719 8.242188 10.941406 8.285156 C 10.878906 8.324219 10.824219 8.351562 10.773438 8.371094 L 11.617188 8.867188 C 11.691406 8.828125 11.777344 8.777344 11.878906 8.714844 C 11.917969 8.695312 11.949219 8.679688 11.976562 8.667969 Z M 11.726562 7.992188 L 12.074219 7.785156 L 10.953125 7.132812 L 10.609375 7.339844 Z M 8.125 8.894531 L 9.851562 9.878906 L 10.226562 9.667969 L 8.480469 8.667969 Z M 8.019531 9.796875 L 8.757812 10.230469 C 8.847656 10.183594 8.976562 10.121094 9.136719 10.035156 L 8.339844 9.570312 C 8.285156 9.609375 8.230469 9.644531 8.167969 9.679688 C 8.117188 9.726562 8.070312 9.761719 8.019531 9.796875 Z M 8.160156 9.476562 L 7.507812 9.101562 L 7.171875 9.304688 L 7.800781 9.675781 C 7.867188 9.636719 7.945312 9.59375 8.03125 9.542969 C 8.074219 9.519531 8.117188 9.496094 8.160156 9.476562 Z M 8.972656 8.347656 L 10.855469 9.433594 L 11.175781 9.253906 L 9.277344 8.160156 Z M 11.8125 6.703125 L 11.453125 6.921875 L 12.082031 7.277344 C 12.15625 7.246094 12.246094 7.199219 12.351562 7.140625 C 12.386719 7.113281 12.421875 7.09375 12.460938 7.074219 Z M 12.070312 22.328125 L 13.175781 22.054688 L 12.070312 22.792969 L 9.015625 20.472656 Z M 1.996094 13.609375 L 0.554688 12.84375 L 1.996094 12.257812 L 1.996094 13.042969 L 9.09375 17.378906 Z M 28.019531 8.171875 L 12.101562 17.128906 L 12.09375 17.128906 L 1.996094 11.015625 L 17.949219 2.03125 Z M 22.375 7.84375 L 22.039062 8.03125 L 22.777344 8.46875 L 23.113281 8.273438 Z M 23.828125 8.683594 L 23.304688 8.382812 L 22.96875 8.574219 L 23.554688 8.921875 L 23.546875 8.914062 L 23.824219 8.683594 Z M 18.078125 11.285156 L 17.710938 11.070312 C 17.679688 11.09375 17.640625 11.117188 17.601562 11.140625 C 17.503906 11.195312 17.433594 11.226562 17.386719 11.238281 C 17.371094 11.246094 17.351562 11.253906 17.328125 11.257812 L 17.699219 11.46875 C 17.765625 11.441406 17.839844 11.410156 17.925781 11.363281 C 17.964844 11.34375 18.015625 11.316406 18.078125 11.285156 Z M 17.90625 11.574219 L 17.902344 11.578125 L 18.480469 11.925781 L 18.828125 11.726562 L 18.261719 11.390625 C 18.21875 11.417969 18.171875 11.445312 18.113281 11.472656 C 18.011719 11.535156 17.941406 11.566406 17.90625 11.574219 Z M 19.703125 11.238281 L 17.644531 10.046875 L 17.277344 10.261719 L 19.339844 11.441406 Z M 20.441406 10.730469 L 19.542969 10.210938 C 19.511719 10.234375 19.46875 10.261719 19.421875 10.289062 C 19.332031 10.34375 19.261719 10.378906 19.214844 10.398438 L 20.152344 10.941406 Z M 16.375 13.207031 L 15.132812 12.488281 L 14.78125 12.691406 L 16.019531 13.40625 Z M 15.390625 13.6875 L 14.5 13.167969 L 14.152344 13.367188 L 15.042969 13.894531 Z M 13.136719 14.359375 L 12.777344 14.558594 L 13.394531 14.90625 L 13.75 14.710938 Z M 13.300781 13.5 L 12.515625 13.050781 L 12.179688 13.234375 L 12.964844 13.695312 Z M 14.488281 14.195312 L 13.480469 13.609375 C 13.441406 13.636719 13.402344 13.664062 13.359375 13.6875 C 13.289062 13.738281 13.230469 13.78125 13.179688 13.816406 L 14.207031 14.417969 Z M 14.175781 12.347656 L 14.578125 12.582031 L 14.9375 12.378906 L 14.53125 12.144531 Z M 14.035156 12.210938 C 14.15625 12.132812 14.269531 12.082031 14.378906 12.058594 L 13.710938 11.667969 L 13.351562 11.871094 L 13.988281 12.234375 C 14.003906 12.226562 14.019531 12.21875 14.035156 12.210938 Z M 12.785156 12.167969 L 12.320312 11.894531 L 11.964844 12.101562 L 12.4375 12.367188 Z M 12.625 12.480469 L 13.957031 13.253906 L 14.304688 13.054688 L 12.972656 12.28125 Z M 12.742188 11.535156 L 13.144531 11.761719 C 13.207031 11.730469 13.289062 11.6875 13.382812 11.628906 C 13.425781 11.601562 13.472656 11.578125 13.523438 11.5625 L 13.101562 11.324219 Z M 12.898438 11.207031 L 12.660156 11.070312 L 12.300781 11.28125 L 12.503906 11.394531 C 12.652344 11.316406 12.785156 11.257812 12.898438 11.207031 Z M 13.503906 10.742188 C 13.542969 10.71875 13.585938 10.695312 13.632812 10.675781 L 12.265625 9.890625 C 12.207031 9.941406 12.128906 9.988281 12.03125 10.042969 C 12.003906 10.058594 11.980469 10.070312 11.964844 10.078125 L 13.296875 10.859375 C 13.359375 10.828125 13.425781 10.792969 13.503906 10.742188 Z M 13.875 11.195312 L 14.230469 11.402344 L 14.566406 11.214844 L 14.207031 11.007812 Z M 13.820312 10.792969 L 13.496094 10.972656 L 13.6875 11.085938 L 14.011719 10.898438 Z M 16.832031 12.910156 L 17.113281 12.691406 L 14.753906 11.324219 L 14.421875 11.515625 Z M 17.132812 11.667969 L 16.777344 11.867188 L 17.667969 12.390625 L 18.015625 12.1875 Z M 16.125 11.394531 C 16.222656 11.339844 16.3125 11.285156 16.398438 11.238281 L 15.054688 10.460938 L 14.707031 10.660156 L 16.042969 11.441406 C 16.070312 11.425781 16.09375 11.410156 16.125 11.394531 Z M 17.175781 11.160156 L 17.527344 10.964844 L 16.515625 10.375 C 16.476562 10.402344 16.433594 10.429688 16.386719 10.460938 C 16.296875 10.507812 16.222656 10.546875 16.167969 10.574219 Z M 16.3125 11.496094 C 16.28125 11.519531 16.25 11.535156 16.226562 11.546875 L 16.582031 11.75 L 16.933594 11.550781 L 16.5625 11.339844 C 16.492188 11.390625 16.410156 11.441406 16.3125 11.496094 Z M 16.300781 8.328125 L 15.191406 7.683594 L 14.871094 7.863281 L 15.976562 8.515625 Z M 16.78125 9.976562 L 17.074219 10.144531 C 17.140625 10.117188 17.210938 10.078125 17.285156 10.03125 C 17.339844 9.996094 17.398438 9.964844 17.453125 9.945312 L 17.136719 9.757812 C 17.074219 9.804688 17 9.851562 16.910156 9.910156 C 16.859375 9.9375 16.816406 9.960938 16.78125 9.976562 Z M 16.769531 8.980469 L 17.125 9.179688 L 17.449219 9 L 17.09375 8.792969 Z M 15.804688 10.15625 C 15.746094 10.203125 15.6875 10.238281 15.636719 10.273438 L 15.957031 10.453125 C 16.050781 10.40625 16.175781 10.34375 16.332031 10.265625 L 15.957031 10.046875 C 15.914062 10.082031 15.863281 10.117188 15.804688 10.15625 Z M 14.914062 8.902344 L 15.160156 9.046875 L 15.53125 8.835938 L 15.28125 8.691406 Z M 15.371094 9.917969 C 15.316406 9.957031 15.265625 9.992188 15.21875 10.023438 L 15.433594 10.144531 L 15.789062 9.945312 L 15.53125 9.796875 C 15.480469 9.835938 15.425781 9.875 15.371094 9.917969 Z M 15.347656 9.148438 L 16.570312 9.847656 C 16.671875 9.804688 16.800781 9.742188 16.960938 9.65625 L 15.691406 8.933594 C 15.636719 8.980469 15.554688 9.035156 15.445312 9.101562 C 15.410156 9.121094 15.375 9.136719 15.347656 9.148438 Z M 16.167969 8.625 L 16.574219 8.859375 L 16.898438 8.679688 L 16.472656 8.429688 C 16.425781 8.472656 16.363281 8.511719 16.277344 8.558594 C 16.234375 8.585938 16.199219 8.609375 16.167969 8.625 Z M 16.558594 7.429688 L 16.308594 7.289062 L 15.957031 7.484375 L 16.203125 7.628906 Z M 16.390625 7.738281 L 17.34375 8.296875 L 17.699219 8.097656 L 16.746094 7.542969 Z M 14.71875 8.792969 L 15.085938 8.582031 L 13.914062 7.90625 L 13.546875 8.121094 Z M 13.441406 8.988281 L 15 9.890625 L 15.347656 9.691406 L 13.789062 8.792969 Z M 13.601562 8.671875 L 12.269531 7.90625 L 11.921875 8.105469 L 13.246094 8.871094 Z M 14.292969 10.207031 C 14.207031 10.25 14.140625 10.285156 14.097656 10.308594 L 14.511719 10.550781 L 14.871094 10.351562 L 14.445312 10.101562 C 14.398438 10.136719 14.347656 10.167969 14.292969 10.207031 Z M 13.058594 9.703125 L 13.914062 10.199219 L 14.265625 9.996094 L 13.417969 9.503906 Z M 13.222656 9.398438 L 12.167969 8.773438 L 11.820312 8.980469 L 12.875 9.597656 Z M 13.058594 7.421875 L 12.648438 7.179688 L 12.277344 7.390625 L 12.691406 7.632812 Z M 13.246094 7.53125 L 12.886719 7.738281 L 13.351562 8.007812 L 13.722656 7.796875 Z M 14.242188 7.5 L 14.558594 7.3125 L 14.316406 7.175781 L 13.992188 7.355469 Z M 14.675781 7.761719 L 15 7.574219 L 14.75 7.433594 L 14.425781 7.617188 Z M 13.875 6.921875 L 13.554688 7.101562 L 13.796875 7.253906 L 14.121094 7.058594 Z M 14.207031 6.199219 C 14.25 6.171875 14.292969 6.152344 14.328125 6.132812 L 13.460938 5.628906 L 13.125 5.835938 L 13.988281 6.335938 C 14.046875 6.296875 14.121094 6.25 14.207031 6.199219 Z M 13.136719 6.5 L 12.605469 6.191406 L 12.300781 6.378906 L 12.820312 6.679688 Z M 13.363281 6.996094 L 13.6875 6.808594 L 13.332031 6.609375 L 13.007812 6.789062 Z M 16.757812 5.980469 L 17.050781 6.148438 L 17.417969 5.9375 L 17.113281 5.757812 C 17.054688 5.792969 16.996094 5.828125 16.933594 5.867188 C 16.875 5.910156 16.816406 5.949219 16.757812 5.980469 Z M 15.574219 7.152344 C 15.527344 7.171875 15.488281 7.183594 15.453125 7.1875 L 15.789062 7.386719 C 15.878906 7.328125 15.988281 7.257812 16.125 7.179688 L 16.128906 7.175781 L 15.824219 7.007812 C 15.742188 7.066406 15.660156 7.113281 15.574219 7.152344 Z M 15.636719 6.890625 L 14.519531 6.238281 L 14.164062 6.4375 L 15.28125 7.097656 Z M 15.519531 5.269531 L 15.886719 5.058594 L 15.207031 4.664062 L 14.847656 4.886719 Z M 15.886719 5.269531 C 15.828125 5.3125 15.769531 5.347656 15.714844 5.375 L 16.558594 5.859375 L 16.921875 5.648438 L 16.0625 5.160156 C 16.007812 5.191406 15.949219 5.226562 15.886719 5.269531 Z M 17.003906 5.097656 L 17.328125 4.921875 L 15.996094 4.152344 L 15.691406 4.339844 Z M 21.6875 8.800781 L 22.734375 9.402344 L 23.085938 9.199219 L 22.046875 8.601562 Z M 20.117188 9.503906 C 20.074219 9.539062 20.027344 9.566406 19.96875 9.597656 C 19.914062 9.640625 19.855469 9.679688 19.800781 9.714844 L 20.996094 10.421875 L 21.335938 10.21875 Z M 20.183594 7.527344 L 19.824219 7.738281 L 19.996094 7.828125 C 20.09375 7.78125 20.21875 7.71875 20.375 7.632812 Z M 20.953125 8.375 L 21.308594 8.171875 L 20.5625 7.742188 C 20.519531 7.773438 20.460938 7.808594 20.398438 7.84375 C 20.320312 7.886719 20.253906 7.921875 20.203125 7.953125 Z M 21.144531 8.492188 L 21.496094 8.691406 L 21.851562 8.484375 L 21.507812 8.285156 Z M 22.191406 7.738281 L 21.832031 7.527344 L 21.496094 7.71875 L 21.851562 7.929688 Z M 18.816406 9.78125 L 17.644531 9.105469 L 17.320312 9.292969 L 18.492188 9.976562 Z M 19.5 9.324219 C 19.429688 9.367188 19.371094 9.40625 19.316406 9.4375 L 19.585938 9.597656 L 19.933594 9.398438 L 19.648438 9.234375 C 19.597656 9.261719 19.550781 9.292969 19.5 9.324219 Z M 18.675781 10.085938 L 19.03125 10.289062 L 19.359375 10.101562 L 19.011719 9.898438 Z M 18.429688 8.59375 C 18.339844 8.667969 18.25 8.726562 18.15625 8.769531 L 19.097656 9.3125 L 19.445312 9.113281 L 18.492188 8.558594 C 18.46875 8.570312 18.449219 8.582031 18.429688 8.59375 Z M 18.296875 8.441406 L 17.886719 8.207031 L 17.539062 8.40625 L 17.925781 8.636719 C 18.023438 8.589844 18.128906 8.535156 18.242188 8.472656 C 18.253906 8.464844 18.273438 8.453125 18.296875 8.441406 Z M 19.328125 7.445312 L 19.628906 7.628906 L 19.996094 7.417969 L 19.6875 7.242188 Z M 19.5 6.179688 L 18.5 5.601562 L 18.175781 5.789062 L 19.160156 6.355469 C 19.242188 6.316406 19.335938 6.273438 19.4375 6.214844 C 19.460938 6.203125 19.480469 6.191406 19.5 6.179688 Z M 17.789062 6.566406 L 19.132812 7.339844 L 19.492188 7.132812 L 18.152344 6.359375 Z M 17.394531 6.171875 C 17.332031 6.207031 17.28125 6.230469 17.242188 6.25 L 17.59375 6.457031 L 17.957031 6.25 L 17.59375 6.035156 C 17.542969 6.078125 17.476562 6.125 17.394531 6.171875 Z M 17.6875 5.496094 L 17.984375 5.671875 L 18.308594 5.492188 L 18.003906 5.308594 C 17.976562 5.332031 17.945312 5.347656 17.917969 5.363281 C 17.839844 5.425781 17.765625 5.46875 17.6875 5.496094 Z M 17.816406 5.207031 L 17.515625 5.027344 C 17.46875 5.054688 17.425781 5.082031 17.375 5.105469 C 17.316406 5.148438 17.261719 5.183594 17.203125 5.214844 L 17.480469 5.375 C 17.5625 5.335938 17.644531 5.292969 17.734375 5.242188 C 17.757812 5.230469 17.785156 5.21875 17.816406 5.207031 Z M 20.867188 6.976562 L 19.695312 6.292969 C 19.671875 6.308594 19.644531 6.328125 19.617188 6.34375 C 19.535156 6.398438 19.453125 6.445312 19.371094 6.480469 L 19.367188 6.480469 L 20.542969 7.164062 Z M 20.953125 7.144531 C 20.847656 7.210938 20.769531 7.253906 20.722656 7.273438 L 21.308594 7.609375 L 21.644531 7.421875 L 21.058594 7.085938 C 21.027344 7.105469 20.992188 7.125 20.953125 7.144531 " fill-opacity="1" fill-rule="evenodd"/></g><path fill="#9b9269" d="M 12.070312 22.792969 L 13.175781 22.054688 L 16.65625 19.75 L 12.070312 23.171875 L 12.070312 22.792969 " fill-opacity="1" fill-rule="evenodd"/><path fill="#8c8775" d="M 12.113281 11.164062 L 10.660156 10.339844 L 11.023438 10.128906 L 12.472656 10.960938 Z M 8.832031 11.03125 C 8.867188 11.015625 8.898438 10.996094 8.929688 10.972656 L 9.445312 11.273438 L 9.125 11.460938 L 8.601562 11.152344 C 8.65625 11.125 8.734375 11.085938 8.832031 11.03125 Z M 12.3125 14.285156 L 11.136719 13.617188 L 11.488281 13.410156 L 12.667969 14.085938 Z M 12.320312 12.941406 L 11.988281 13.128906 L 11.679688 12.945312 C 11.726562 12.929688 11.792969 12.894531 11.878906 12.84375 C 11.925781 12.816406 11.96875 12.789062 12.015625 12.757812 Z M 10.046875 9.996094 L 10.414062 9.777344 L 10.835938 10.019531 L 10.464844 10.230469 Z M 11.042969 9.546875 C 11.085938 9.527344 11.132812 9.5 11.183594 9.46875 C 11.25 9.433594 11.304688 9.398438 11.355469 9.359375 L 11.667969 9.542969 L 11.347656 9.722656 Z M 11.554688 9.84375 C 11.597656 9.820312 11.640625 9.792969 11.683594 9.765625 C 11.746094 9.722656 11.800781 9.679688 11.847656 9.644531 L 12.09375 9.789062 L 11.777344 9.976562 Z M 6.339844 9.847656 L 6.652344 9.65625 L 8.464844 10.707031 L 8.144531 10.886719 Z M 6.433594 10.925781 L 5.5 10.398438 L 5.851562 10.167969 L 6.800781 10.710938 Z M 6.898438 11.195312 L 7.269531 10.984375 L 9.210938 12.101562 L 8.851562 12.308594 Z M 11.050781 11.304688 C 11.089844 11.277344 11.132812 11.25 11.171875 11.226562 L 12.140625 11.792969 C 12.082031 11.8125 12.023438 11.839844 11.964844 11.871094 C 11.894531 11.917969 11.832031 11.953125 11.769531 11.980469 L 10.8125 11.417969 C 10.855469 11.40625 10.933594 11.367188 11.050781 11.304688 Z M 10.578125 11.070312 C 10.636719 11.03125 10.6875 11 10.730469 10.964844 L 10.980469 11.109375 L 10.632812 11.316406 L 10.382812 11.171875 C 10.4375 11.148438 10.503906 11.113281 10.578125 11.070312 Z M 10.550781 10.863281 C 10.398438 10.945312 10.273438 11.007812 10.175781 11.050781 L 8.972656 10.351562 C 9.015625 10.332031 9.074219 10.296875 9.15625 10.25 C 9.21875 10.210938 9.273438 10.175781 9.320312 10.144531 Z M 10.96875 13.109375 C 10.949219 13.117188 10.929688 13.128906 10.914062 13.140625 C 10.816406 13.222656 10.726562 13.289062 10.644531 13.339844 L 9.316406 12.570312 C 9.351562 12.550781 9.398438 12.527344 9.449219 12.5 C 9.539062 12.445312 9.609375 12.402344 9.664062 12.359375 Z M 10.628906 12.136719 C 10.570312 12.171875 10.523438 12.210938 10.480469 12.25 L 9.578125 11.726562 L 9.90625 11.539062 L 10.785156 12.054688 C 10.75 12.070312 10.699219 12.097656 10.628906 12.136719 Z M 10.769531 12.300781 C 10.855469 12.242188 10.925781 12.199219 10.980469 12.160156 L 11.824219 12.65625 C 11.679688 12.726562 11.558594 12.78125 11.46875 12.824219 L 10.675781 12.359375 C 10.707031 12.34375 10.734375 12.324219 10.769531 12.300781 Z M 10.957031 8.070312 L 10.75 8.175781 C 10.691406 8.210938 10.640625 8.238281 10.597656 8.269531 L 9.796875 7.804688 L 10.140625 7.597656 Z M 11.976562 8.667969 C 11.949219 8.679688 11.917969 8.695312 11.878906 8.714844 C 11.777344 8.777344 11.691406 8.828125 11.617188 8.867188 L 10.773438 8.371094 C 10.824219 8.351562 10.878906 8.324219 10.941406 8.285156 C 11.011719 8.242188 11.074219 8.203125 11.121094 8.171875 Z M 11.726562 7.992188 L 10.609375 7.339844 L 10.953125 7.132812 L 12.074219 7.785156 Z M 8.019531 9.796875 C 8.070312 9.761719 8.117188 9.726562 8.167969 9.679688 C 8.230469 9.644531 8.285156 9.609375 8.339844 9.570312 L 9.136719 10.035156 C 8.976562 10.121094 8.847656 10.183594 8.757812 10.230469 Z M 8.125 8.894531 L 8.480469 8.667969 L 10.226562 9.667969 L 9.851562 9.878906 Z M 8.160156 9.476562 C 8.117188 9.496094 8.074219 9.519531 8.03125 9.542969 C 7.945312 9.59375 7.867188 9.636719 7.800781 9.675781 L 7.171875 9.304688 L 7.507812 9.101562 Z M 8.972656 8.347656 L 9.277344 8.160156 L 11.175781 9.253906 L 10.855469 9.433594 Z M 11.8125 6.703125 L 12.460938 7.074219 C 12.421875 7.09375 12.386719 7.113281 12.351562 7.140625 C 12.246094 7.199219 12.15625 7.246094 12.082031 7.277344 L 11.453125 6.921875 Z M 15.390625 13.6875 L 15.042969 13.894531 L 14.152344 13.367188 L 14.5 13.167969 Z M 16.375 13.207031 L 16.019531 13.40625 L 14.78125 12.691406 L 15.132812 12.488281 Z M 20.441406 10.730469 L 20.152344 10.941406 L 19.214844 10.398438 C 19.261719 10.378906 19.332031 10.34375 19.421875 10.289062 C 19.46875 10.261719 19.511719 10.234375 19.542969 10.210938 Z M 19.703125 11.238281 L 19.339844 11.441406 L 17.277344 10.261719 L 17.644531 10.046875 Z M 17.90625 11.574219 C 17.941406 11.566406 18.011719 11.535156 18.113281 11.472656 C 18.171875 11.445312 18.21875 11.417969 18.261719 11.390625 L 18.828125 11.726562 L 18.480469 11.925781 L 17.902344 11.578125 Z M 18.078125 11.285156 C 18.015625 11.316406 17.964844 11.34375 17.925781 11.363281 C 17.839844 11.410156 17.765625 11.441406 17.699219 11.46875 L 17.328125 11.257812 C 17.351562 11.253906 17.371094 11.246094 17.386719 11.238281 C 17.433594 11.226562 17.503906 11.195312 17.601562 11.140625 C 17.640625 11.117188 17.679688 11.09375 17.710938 11.070312 Z M 23.828125 8.683594 L 23.824219 8.683594 L 23.546875 8.914062 L 23.554688 8.921875 L 22.96875 8.574219 L 23.304688 8.382812 Z M 22.375 7.84375 L 23.113281 8.273438 L 22.777344 8.46875 L 22.039062 8.03125 Z M 13.136719 14.359375 L 13.75 14.710938 L 13.394531 14.90625 L 12.777344 14.558594 Z M 13.820312 10.792969 L 14.011719 10.898438 L 13.6875 11.085938 L 13.496094 10.972656 Z M 13.875 11.195312 L 14.207031 11.007812 L 14.566406 11.214844 L 14.230469 11.402344 Z M 13.503906 10.742188 C 13.425781 10.792969 13.359375 10.828125 13.296875 10.859375 L 11.964844 10.078125 C 11.980469 10.070312 12.003906 10.058594 12.03125 10.042969 C 12.128906 9.988281 12.207031 9.941406 12.265625 9.890625 L 13.632812 10.675781 C 13.585938 10.695312 13.542969 10.71875 13.503906 10.742188 Z M 12.898438 11.207031 C 12.785156 11.257812 12.652344 11.316406 12.503906 11.394531 L 12.300781 11.28125 L 12.660156 11.070312 Z M 12.742188 11.535156 L 13.101562 11.324219 L 13.523438 11.5625 C 13.472656 11.578125 13.425781 11.601562 13.382812 11.628906 C 13.289062 11.6875 13.207031 11.730469 13.144531 11.761719 Z M 12.625 12.480469 L 12.972656 12.28125 L 14.304688 13.054688 L 13.957031 13.253906 Z M 12.785156 12.167969 L 12.4375 12.367188 L 11.964844 12.101562 L 12.320312 11.894531 Z M 14.035156 12.210938 C 14.019531 12.21875 14.003906 12.226562 13.988281 12.234375 L 13.351562 11.871094 L 13.710938 11.667969 L 14.378906 12.058594 C 14.269531 12.082031 14.15625 12.132812 14.035156 12.210938 Z M 14.175781 12.347656 L 14.53125 12.144531 L 14.9375 12.378906 L 14.578125 12.582031 Z M 14.488281 14.195312 L 14.207031 14.417969 L 13.179688 13.816406 C 13.230469 13.78125 13.289062 13.738281 13.359375 13.6875 C 13.402344 13.664062 13.441406 13.636719 13.480469 13.609375 Z M 13.300781 13.5 L 12.964844 13.695312 L 12.179688 13.234375 L 12.515625 13.050781 Z M 17.132812 11.667969 L 18.015625 12.1875 L 17.667969 12.390625 L 16.777344 11.867188 Z M 16.832031 12.910156 L 14.421875 11.515625 L 14.753906 11.324219 L 17.113281 12.691406 Z M 15.804688 10.15625 C 15.863281 10.117188 15.914062 10.082031 15.957031 10.046875 L 16.332031 10.265625 C 16.175781 10.34375 16.050781 10.40625 15.957031 10.453125 L 15.636719 10.273438 C 15.6875 10.238281 15.746094 10.203125 15.804688 10.15625 Z M 16.769531 8.980469 L 17.09375 8.792969 L 17.449219 9 L 17.125 9.179688 Z M 16.78125 9.976562 C 16.816406 9.960938 16.859375 9.9375 16.910156 9.910156 C 17 9.851562 17.074219 9.804688 17.136719 9.757812 L 17.453125 9.945312 C 17.398438 9.964844 17.339844 9.996094 17.285156 10.03125 C 17.210938 10.078125 17.140625 10.117188 17.074219 10.144531 Z M 16.300781 8.328125 L 15.976562 8.515625 L 14.871094 7.863281 L 15.191406 7.683594 Z M 16.3125 11.496094 C 16.410156 11.441406 16.492188 11.390625 16.5625 11.339844 L 16.933594 11.550781 L 16.582031 11.75 L 16.226562 11.546875 C 16.25 11.535156 16.28125 11.519531 16.3125 11.496094 Z M 17.175781 11.160156 L 16.167969 10.574219 C 16.222656 10.546875 16.296875 10.507812 16.386719 10.460938 C 16.433594 10.429688 16.476562 10.402344 16.515625 10.375 L 17.527344 10.964844 Z M 16.125 11.394531 C 16.09375 11.410156 16.070312 11.425781 16.042969 11.441406 L 14.707031 10.660156 L 15.054688 10.460938 L 16.398438 11.238281 C 16.3125 11.285156 16.222656 11.339844 16.125 11.394531 Z M 15.371094 9.917969 C 15.425781 9.875 15.480469 9.835938 15.53125 9.796875 L 15.789062 9.945312 L 15.433594 10.144531 L 15.21875 10.023438 C 15.265625 9.992188 15.316406 9.957031 15.371094 9.917969 Z M 14.914062 8.902344 L 15.28125 8.691406 L 15.53125 8.835938 L 15.160156 9.046875 Z M 13.058594 7.421875 L 12.691406 7.632812 L 12.277344 7.390625 L 12.648438 7.179688 Z M 13.222656 9.398438 L 12.875 9.597656 L 11.820312 8.980469 L 12.167969 8.773438 Z M 13.058594 9.703125 L 13.417969 9.503906 L 14.265625 9.996094 L 13.914062 10.199219 Z M 14.292969 10.207031 C 14.347656 10.167969 14.398438 10.136719 14.445312 10.101562 L 14.871094 10.351562 L 14.511719 10.550781 L 14.097656 10.308594 C 14.140625 10.285156 14.207031 10.25 14.292969 10.207031 Z M 13.601562 8.671875 L 13.246094 8.871094 L 11.921875 8.105469 L 12.269531 7.90625 Z M 13.441406 8.988281 L 13.789062 8.792969 L 15.347656 9.691406 L 15 9.890625 Z M 14.71875 8.792969 L 13.546875 8.121094 L 13.914062 7.90625 L 15.085938 8.582031 Z M 16.390625 7.738281 L 16.746094 7.542969 L 17.699219 8.097656 L 17.34375 8.296875 Z M 16.558594 7.429688 L 16.203125 7.628906 L 15.957031 7.484375 L 16.308594 7.289062 Z M 16.167969 8.625 C 16.199219 8.609375 16.234375 8.585938 16.277344 8.558594 C 16.363281 8.511719 16.425781 8.472656 16.472656 8.429688 L 16.898438 8.679688 L 16.574219 8.859375 Z M 15.347656 9.148438 C 15.375 9.136719 15.410156 9.121094 15.445312 9.101562 C 15.554688 9.035156 15.636719 8.980469 15.691406 8.933594 L 16.960938 9.65625 C 16.800781 9.742188 16.671875 9.804688 16.570312 9.847656 Z M 13.246094 7.53125 L 13.722656 7.796875 L 13.351562 8.007812 L 12.886719 7.738281 Z M 15.636719 6.890625 L 15.28125 7.097656 L 14.164062 6.4375 L 14.519531 6.238281 Z M 15.574219 7.152344 C 15.660156 7.113281 15.742188 7.066406 15.824219 7.007812 L 16.128906 7.175781 L 16.125 7.179688 C 15.988281 7.257812 15.878906 7.328125 15.789062 7.386719 L 15.453125 7.1875 C 15.488281 7.183594 15.527344 7.171875 15.574219 7.152344 Z M 16.757812 5.980469 C 16.816406 5.949219 16.875 5.910156 16.933594 5.867188 C 16.996094 5.828125 17.054688 5.792969 17.113281 5.757812 L 17.417969 5.9375 L 17.050781 6.148438 Z M 13.363281 6.996094 L 13.007812 6.789062 L 13.332031 6.609375 L 13.6875 6.808594 Z M 13.136719 6.5 L 12.820312 6.679688 L 12.300781 6.378906 L 12.605469 6.191406 Z M 14.207031 6.199219 C 14.121094 6.25 14.046875 6.296875 13.988281 6.335938 L 13.125 5.835938 L 13.460938 5.628906 L 14.328125 6.132812 C 14.292969 6.152344 14.25 6.171875 14.207031 6.199219 Z M 13.875 6.921875 L 14.121094 7.058594 L 13.796875 7.253906 L 13.554688 7.101562 Z M 14.675781 7.761719 L 14.425781 7.617188 L 14.75 7.433594 L 15 7.574219 Z M 14.242188 7.5 L 13.992188 7.355469 L 14.316406 7.175781 L 14.558594 7.3125 Z M 15.519531 5.269531 L 14.847656 4.886719 L 15.207031 4.664062 L 15.886719 5.058594 Z M 15.886719 5.269531 C 15.949219 5.226562 16.007812 5.191406 16.0625 5.160156 L 16.921875 5.648438 L 16.558594 5.859375 L 15.714844 5.375 C 15.769531 5.347656 15.828125 5.3125 15.886719 5.269531 Z M 17.003906 5.097656 L 15.691406 4.339844 L 15.996094 4.152344 L 17.328125 4.921875 Z M 21.6875 8.800781 L 22.046875 8.601562 L 23.085938 9.199219 L 22.734375 9.402344 Z M 20.117188 9.503906 L 21.335938 10.21875 L 20.996094 10.421875 L 19.800781 9.714844 C 19.855469 9.679688 19.914062 9.640625 19.96875 9.597656 C 20.027344 9.566406 20.074219 9.539062 20.117188 9.503906 Z M 18.296875 8.441406 C 18.273438 8.453125 18.253906 8.464844 18.242188 8.472656 C 18.128906 8.535156 18.023438 8.589844 17.925781 8.636719 L 17.539062 8.40625 L 17.886719 8.207031 Z M 18.429688 8.59375 C 18.449219 8.582031 18.46875 8.570312 18.492188 8.558594 L 19.445312 9.113281 L 19.097656 9.3125 L 18.15625 8.769531 C 18.25 8.726562 18.339844 8.667969 18.429688 8.59375 Z M 18.675781 10.085938 L 19.011719 9.898438 L 19.359375 10.101562 L 19.03125 10.289062 Z M 19.5 9.324219 C 19.550781 9.292969 19.597656 9.261719 19.648438 9.234375 L 19.933594 9.398438 L 19.585938 9.597656 L 19.316406 9.4375 C 19.371094 9.40625 19.429688 9.367188 19.5 9.324219 Z M 18.816406 9.78125 L 18.492188 9.976562 L 17.320312 9.292969 L 17.644531 9.105469 Z M 22.191406 7.738281 L 21.851562 7.929688 L 21.496094 7.71875 L 21.832031 7.527344 Z M 21.144531 8.492188 L 21.507812 8.285156 L 21.851562 8.484375 L 21.496094 8.691406 Z M 20.953125 8.375 L 20.203125 7.953125 C 20.253906 7.921875 20.320312 7.886719 20.398438 7.84375 C 20.460938 7.808594 20.519531 7.773438 20.5625 7.742188 L 21.308594 8.171875 Z M 20.183594 7.527344 L 20.375 7.632812 C 20.21875 7.71875 20.09375 7.78125 19.996094 7.828125 L 19.824219 7.738281 Z M 19.328125 7.445312 L 19.6875 7.242188 L 19.996094 7.417969 L 19.628906 7.628906 Z M 20.953125 7.144531 C 20.992188 7.125 21.027344 7.105469 21.058594 7.085938 L 21.644531 7.421875 L 21.308594 7.609375 L 20.722656 7.273438 C 20.769531 7.253906 20.847656 7.210938 20.953125 7.144531 Z M 20.867188 6.976562 L 20.542969 7.164062 L 19.367188 6.480469 L 19.371094 6.480469 C 19.453125 6.445312 19.535156 6.398438 19.617188 6.34375 C 19.644531 6.328125 19.671875 6.308594 19.695312 6.292969 Z M 17.816406 5.207031 C 17.785156 5.21875 17.757812 5.230469 17.734375 5.242188 C 17.644531 5.292969 17.5625 5.335938 17.480469 5.375 L 17.203125 5.214844 C 17.261719 5.183594 17.316406 5.148438 17.375 5.105469 C 17.425781 5.082031 17.46875 5.054688 17.515625 5.027344 Z M 17.6875 5.496094 C 17.765625 5.46875 17.839844 5.425781 17.917969 5.363281 C 17.945312 5.347656 17.976562 5.332031 18.003906 5.308594 L 18.308594 5.492188 L 17.984375 5.671875 Z M 17.394531 6.171875 C 17.476562 6.125 17.542969 6.078125 17.59375 6.035156 L 17.957031 6.25 L 17.59375 6.457031 L 17.242188 6.25 C 17.28125 6.230469 17.332031 6.207031 17.394531 6.171875 Z M 17.789062 6.566406 L 18.152344 6.359375 L 19.492188 7.132812 L 19.132812 7.339844 Z M 19.5 6.179688 C 19.480469 6.191406 19.460938 6.203125 19.4375 6.214844 C 19.335938 6.273438 19.242188 6.316406 19.160156 6.355469 L 18.175781 5.789062 L 18.5 5.601562 L 19.5 6.179688 " fill-opacity="1" fill-rule="evenodd"/></svg>