<svg xmlns="http://www.w3.org/2000/svg" xmlns:xlink="http://www.w3.org/1999/xlink" width="40" zoomAndPan="magnify" viewBox="0 0 30 30.000001" height="40" preserveAspectRatio="xMidYMid meet" version="1.0"><defs><clipPath id="0d2331471b"><path d="M 7 0 L 29.515625 0 L 29.515625 17 L 7 17 Z M 7 0 " clip-rule="nonzero"/></clipPath><clipPath id="a704fc2e7c"><path d="M 7 0 L 29.515625 0 L 29.515625 4 L 7 4 Z M 7 0 " clip-rule="nonzero"/></clipPath><clipPath id="1be52aeee0"><path d="M 0.484375 13 L 28 13 L 28 29.03125 L 0.484375 29.03125 Z M 0.484375 13 " clip-rule="nonzero"/></clipPath></defs><path fill="#496592" d="M 26.796875 11.867188 L 11.570312 11.867188 C 11.105469 11.867188 10.726562 11.492188 10.726562 11.023438 L 10.726562 10.421875 C 10.726562 10.011719 10.378906 9.679688 9.953125 9.679688 L 4.332031 9.679688 C 3.90625 9.679688 3.558594 10.011719 3.558594 10.421875 L 3.558594 27.265625 C 3.558594 27.867188 4.066406 28.355469 4.695312 28.355469 L 26.796875 28.355469 C 27.425781 28.355469 27.9375 27.867188 27.9375 27.265625 L 27.9375 12.957031 C 27.9375 12.355469 27.425781 11.867188 26.796875 11.867188 " fill-opacity="1" fill-rule="nonzero"/><g clip-path="url(#0d2331471b)"><path fill="#98b7e4" d="M 29.851562 16.289062 L 8.738281 16.289062 C 8.136719 16.289062 7.648438 15.800781 7.648438 15.199219 L 7.648438 1.085938 C 7.648438 0.484375 8.136719 -0.00390625 8.738281 -0.00390625 L 29.851562 -0.00390625 C 30.453125 -0.00390625 30.9375 0.484375 30.9375 1.085938 L 30.9375 15.199219 C 30.9375 15.800781 30.453125 16.289062 29.851562 16.289062 " fill-opacity="1" fill-rule="nonzero"/></g><g clip-path="url(#a704fc2e7c)"><path fill="#496592" d="M 30.9375 3.75 L 30.9375 1.085938 C 30.9375 0.484375 30.453125 -0.00390625 29.851562 -0.00390625 L 8.738281 -0.00390625 C 8.136719 -0.00390625 7.648438 0.484375 7.648438 1.085938 L 7.648438 3.75 L 30.9375 3.75 " fill-opacity="1" fill-rule="nonzero"/></g><path fill="#f8dd4e" d="M 9.660156 1.964844 C 9.660156 2.242188 9.433594 2.46875 9.15625 2.46875 C 8.878906 2.46875 8.65625 2.242188 8.65625 1.964844 C 8.65625 1.6875 8.878906 1.460938 9.15625 1.460938 C 9.433594 1.460938 9.660156 1.6875 9.660156 1.964844 " fill-opacity="1" fill-rule="nonzero"/><path fill="#6ec399" d="M 11.304688 1.964844 C 11.304688 2.242188 11.078125 2.46875 10.800781 2.46875 C 10.523438 2.46875 10.296875 2.242188 10.296875 1.964844 C 10.296875 1.6875 10.523438 1.460938 10.800781 1.460938 C 11.078125 1.460938 11.304688 1.6875 11.304688 1.964844 " fill-opacity="1" fill-rule="nonzero"/><path fill="#ed547c" d="M 13.128906 1.964844 C 13.128906 2.242188 12.90625 2.46875 12.628906 2.46875 C 12.351562 2.46875 12.125 2.242188 12.125 1.964844 C 12.125 1.6875 12.351562 1.460938 12.628906 1.460938 C 12.90625 1.460938 13.128906 1.6875 13.128906 1.964844 " fill-opacity="1" fill-rule="nonzero"/><path fill="#ffffff" d="M 23.75 9.507812 C 23.75 11.972656 21.753906 13.972656 19.292969 13.972656 C 16.832031 13.972656 14.835938 11.972656 14.835938 9.507812 C 14.835938 7.039062 16.832031 5.039062 19.292969 5.039062 C 21.753906 5.039062 23.75 7.039062 23.75 9.507812 " fill-opacity="1" fill-rule="nonzero"/><path fill="#ed547c" d="M 22.628906 9.535156 L 19.960938 11.078125 L 17.300781 12.617188 L 17.300781 6.449219 L 19.960938 7.992188 L 22.628906 9.535156 " fill-opacity="1" fill-rule="nonzero"/><g clip-path="url(#1be52aeee0)"><path fill="#f8dd4e" d="M 11.65625 14.265625 L 11.78125 14.746094 C 11.878906 15.105469 11.664062 15.402344 11.300781 15.402344 L 1.246094 15.402344 C 0.785156 15.402344 0.496094 15.78125 0.605469 16.246094 L 3.28125 27.839844 C 3.433594 28.492188 4.066406 29.023438 4.695312 29.023438 L 26.796875 29.023438 C 27.425781 29.023438 27.78125 28.492188 27.585938 27.839844 L 23.601562 14.265625 C 23.40625 13.601562 22.714844 13.066406 22.054688 13.066406 L 12.539062 13.066406 C 11.878906 13.066406 11.484375 13.601562 11.65625 14.265625 " fill-opacity="1" fill-rule="nonzero"/></g></svg>